#!OML:ASF E:\Mandelcareful walks\Project 1\Capture day 1\Session 1\Subject1.ASF
:FULLY-SPECIFIED
:DEGREES
847
root -5.564 15.0267 2.62768 298.622 -87.4071 79.0185
lowerback 29.6891 -0.0701559 -2.79303
upperback 6.84085 -1.57476 -0.488272
thorax -8.5803 -0.938802 1.66765
lowerneck -19.1399 -14.2515 -16.4322
upperneck 8.29154 -18.531 20.9295
head 9.432 -7.86 6.80269
rclavicle 2.78299e-015 -9.93923e-016
rhumerus -24.253 21.0774 -90.4301
rradius 45.549
rwrist -63.3534
rhand 11.1598 -39.047
rfingers 7.12502
rthumb 36.2255 -65.3078
lclavicle 2.78299e-015 -9.93923e-016
lhumerus -180.109 -103.521 274.575
lradius 54.8011
lwrist 0.167159
lhand -25.4673 -13.5507
lfingers 7.12502
lthumb 1.06022 16.4264
rfemur -58.3706 -10.09 10.0906
rtibia 58.5759
rfoot -13.2998 -14.6217
rtoes 2.22635
lfemur -49.1118 14.6226 -25.0034
ltibia 67.6408
lfoot -31.9899 7.35619
ltoes -5.13414
848
root -5.61182 14.9787 2.62042 294.517 -86.9563 83.8808
lowerback 28.9173 -0.284352 -2.88968
upperback 6.64785 -1.81258 -0.423682
thorax -8.40721 -1.03695 1.86237
lowerneck -19.2998 -14.2948 -16.6099
upperneck 8.1341 -18.5537 21.194
head 9.46446 -7.85527 6.90978
rclavicle 1.59028e-015 -1.59028e-015
rhumerus -23.979 21.1433 -90.4477
rradius 45.6068
rwrist -63.1386
rhand 11.396 -39.1825
rfingers 7.12502
rthumb 36.4492 -65.3873
lclavicle 1.59028e-015 -1.59028e-015
lhumerus -180.09 -103.574 274.357
lradius 55.1995
lwrist -0.256087
lhand -26.1866 -13.6135
lfingers 7.12502
lthumb 0.365544 16.366
rfemur -60.361 -10.6803 10.8012
rtibia 58.9304
rfoot -12.7966 -14.7462
rtoes 3.59517
lfemur -49.7138 14.2681 -25.661
ltibia 67.8149
lfoot -32.4378 7.48417
ltoes -4.41548
849
root -5.71426 14.945 2.62102 261.529 -86.6994 117.031
lowerback 28.1771 0.210645 -3.35928
upperback 6.73952 -1.29761 -0.432484
thorax -7.9549 -0.802523 1.92851
lowerneck -19.8435 -14.2272 -16.3743
upperneck 8.43728 -18.438 20.9105
head 9.57551 -7.76772 6.78228
rclavicle -2.55438e-014 -4.3832e-014
rhumerus -23.6184 21.2863 -90.4707
rradius 45.4907
rwrist -62.8423
rhand 11.8951 -39.2735
rfingers 7.12502
rthumb 36.9215 -65.3582
lclavicle -2.55438e-014 -4.3832e-014
lhumerus -180.139 -103.746 274.225
lradius 55.5752
lwrist -0.578033
lhand -26.6409 -13.7254
lfingers 7.12502
lthumb -0.0732776 16.2543
rfemur -61.6325 -9.84731 11.7578
rtibia 59.2573
rfoot -12.6531 -14.9433
rtoes 5.6209
lfemur -49.0525 15.8327 -26.1017
ltibia 67.953
lfoot -33.5833 7.61766
ltoes -4.4404
850
root -5.82888 14.9787 2.6182 249.995 -86.0155 128.066
lowerback 28.2312 0.372961 -3.45907
upperback 6.96239 -1.14553 -0.428465
thorax -7.73679 -0.748691 1.93836
lowerneck -20.6435 -14.1691 -16.0681
upperneck 9.11528 -18.344 20.4426
head 9.83219 -7.6697 6.56964
rclavicle 3.77691e-015 1.0635e-014
rhumerus -23.3281 21.3275 -90.5006
rradius 45.4288
rwrist -62.4747
rhand 12.9133 -39.3309
rfingers 7.12502
rthumb 37.8839 -65.1616
lclavicle 3.77691e-015 1.0635e-014
lhumerus -179.57 -103.556 273.461
lradius 55.8739
lwrist -0.448115
lhand -26.9323 -13.7625
lfingers 7.12502
lthumb -0.354685 16.2169
rfemur -61.4431 -9.44903 12.2777
rtibia 59.5354
rfoot -13.4377 -15.6577
rtoes 8.1949
lfemur -48.1217 16.1654 -25.8264
ltibia 67.9429
lfoot -34.2622 7.07834
ltoes -1.17856
851
root -5.91971 14.9526 2.60364 246.124 -85.3749 131.942
lowerback 27.9754 0.361365 -3.51185
upperback 7.01065 -1.15596 -0.320588
thorax -7.55311 -0.758822 2.08686
lowerneck -21.108 -14.1209 -16.3091
upperneck 9.58368 -18.2071 20.3869
head 10.0629 -7.56929 6.60989
rclavicle 4.96962e-015 -1.32192e-014
rhumerus -23.1509 21.6571 -90.3861
rradius 45.5389
rwrist -62.5098
rhand 13.5288 -39.5716
rfingers 7.12502
rthumb 38.465 -65.2428
lclavicle 4.96962e-015 -1.32192e-014
lhumerus -179.016 -103.557 272.895
lradius 56.1005
lwrist -0.428629
lhand -27.1095 -13.6321
lfingers 7.12502
lthumb -0.525804 16.347
rfemur -62.0034 -9.33536 12.7087
rtibia 59.9805
rfoot -14.2853 -16.7805
rtoes 10.7473
lfemur -47.7069 16.4264 -26.0746
ltibia 68.0259
lfoot -34.8292 7.13346
ltoes -1.27417
852
root -6.00884 14.9212 2.58478 243.101 -84.7413 134.964
lowerback 27.8836 0.303794 -3.50743
upperback 6.95499 -1.21001 -0.19364
thorax -7.56435 -0.782141 2.2423
lowerneck -21.1139 -14.0042 -16.6844
upperneck 9.72189 -17.9736 20.4767
head 10.1146 -7.46035 6.75879
rclavicle 4.53726e-014 2.21893e-014
rhumerus -23.1358 22.2105 -90.2748
rradius 45.6867
rwrist -62.8944
rhand 13.1004 -39.6224
rfingers 7.12502
rthumb 38.0607 -65.4051
lclavicle 4.53726e-014 2.21893e-014
lhumerus -179.513 -103.968 273.446
lradius 56.2894
lwrist -0.620361
lhand -27.0568 -13.5945
lfingers 7.12502
lthumb -0.474902 16.3847
rfemur -62.4984 -9.52734 13.2264
rtibia 60.592
rfoot -14.8148 -17.6908
rtoes 10.9583
lfemur -46.8504 17.0193 -26.6214
ltibia 67.9994
lfoot -35.4815 7.67267
ltoes -4.4519
